<?xml version="1.0" encoding="UTF-8"?>
<svg width="800px" height="800px" viewBox="0 0 800 800" version="1.1" xmlns="http://www.w3.org/2000/svg">
    <g stroke="none" fill="none" fill-rule="evenodd">
        <g fill="#FFFFFF" fill-rule="nonzero">
            <!-- Repeating barbell pattern -->
            <!-- Row 1 -->
            <g transform="translate(0, 0)">
                <!-- Barbell 1 -->
                <rect x="50" y="50" width="100" height="10" rx="5"/>
                <circle cx="30" cy="55" r="20"/>
                <circle cx="170" cy="55" r="20"/>
                
                <!-- Barbell 2 -->
                <rect x="250" y="50" width="100" height="10" rx="5"/>
                <circle cx="230" cy="55" r="20"/>
                <circle cx="370" cy="55" r="20"/>
                
                <!-- Barbell 3 -->
                <rect x="450" y="50" width="100" height="10" rx="5"/>
                <circle cx="430" cy="55" r="20"/>
                <circle cx="570" cy="55" r="20"/>
                
                <!-- Barbell 4 -->
                <rect x="650" y="50" width="100" height="10" rx="5"/>
                <circle cx="630" cy="55" r="20"/>
                <circle cx="770" cy="55" r="20"/>
            </g>
            
            <!-- Row 2 -->
            <g transform="translate(0, 150)">
                <!-- Barbell 1 -->
                <rect x="50" y="50" width="100" height="10" rx="5"/>
                <circle cx="30" cy="55" r="20"/>
                <circle cx="170" cy="55" r="20"/>
                
                <!-- Barbell 2 -->
                <rect x="250" y="50" width="100" height="10" rx="5"/>
                <circle cx="230" cy="55" r="20"/>
                <circle cx="370" cy="55" r="20"/>
                
                <!-- Barbell 3 -->
                <rect x="450" y="50" width="100" height="10" rx="5"/>
                <circle cx="430" cy="55" r="20"/>
                <circle cx="570" cy="55" r="20"/>
                
                <!-- Barbell 4 -->
                <rect x="650" y="50" width="100" height="10" rx="5"/>
                <circle cx="630" cy="55" r="20"/>
                <circle cx="770" cy="55" r="20"/>
            </g>
            
            <!-- Row 3 -->
            <g transform="translate(0, 300)">
                <!-- Barbell 1 -->
                <rect x="50" y="50" width="100" height="10" rx="5"/>
                <circle cx="30" cy="55" r="20"/>
                <circle cx="170" cy="55" r="20"/>
                
                <!-- Barbell 2 -->
                <rect x="250" y="50" width="100" height="10" rx="5"/>
                <circle cx="230" cy="55" r="20"/>
                <circle cx="370" cy="55" r="20"/>
                
                <!-- Barbell 3 -->
                <rect x="450" y="50" width="100" height="10" rx="5"/>
                <circle cx="430" cy="55" r="20"/>
                <circle cx="570" cy="55" r="20"/>
                
                <!-- Barbell 4 -->
                <rect x="650" y="50" width="100" height="10" rx="5"/>
                <circle cx="630" cy="55" r="20"/>
                <circle cx="770" cy="55" r="20"/>
            </g>
            
            <!-- Row 4 -->
            <g transform="translate(0, 450)">
                <!-- Barbell 1 -->
                <rect x="50" y="50" width="100" height="10" rx="5"/>
                <circle cx="30" cy="55" r="20"/>
                <circle cx="170" cy="55" r="20"/>
                
                <!-- Barbell 2 -->
                <rect x="250" y="50" width="100" height="10" rx="5"/>
                <circle cx="230" cy="55" r="20"/>
                <circle cx="370" cy="55" r="20"/>
                
                <!-- Barbell 3 -->
                <rect x="450" y="50" width="100" height="10" rx="5"/>
                <circle cx="430" cy="55" r="20"/>
                <circle cx="570" cy="55" r="20"/>
                
                <!-- Barbell 4 -->
                <rect x="650" y="50" width="100" height="10" rx="5"/>
                <circle cx="630" cy="55" r="20"/>
                <circle cx="770" cy="55" r="20"/>
            </g>
            
            <!-- Row 5 -->
            <g transform="translate(0, 600)">
                <!-- Barbell 1 -->
                <rect x="50" y="50" width="100" height="10" rx="5"/>
                <circle cx="30" cy="55" r="20"/>
                <circle cx="170" cy="55" r="20"/>
                
                <!-- Barbell 2 -->
                <rect x="250" y="50" width="100" height="10" rx="5"/>
                <circle cx="230" cy="55" r="20"/>
                <circle cx="370" cy="55" r="20"/>
                
                <!-- Barbell 3 -->
                <rect x="450" y="50" width="100" height="10" rx="5"/>
                <circle cx="430" cy="55" r="20"/>
                <circle cx="570" cy="55" r="20"/>
                
                <!-- Barbell 4 -->
                <rect x="650" y="50" width="100" height="10" rx="5"/>
                <circle cx="630" cy="55" r="20"/>
                <circle cx="770" cy="55" r="20"/>
            </g>
        </g>
    </g>
</svg>
